<svg xmlns="http://www.w3.org/2000/svg" width="1680" height="943" viewBox="0 0 1680 943" role="img" aria-label="Campus login background">
  <defs>
    <linearGradient id="bg" x1="0" y1="0" x2="1" y2="1">
      <stop offset="0" stop-color="#f8fbff"/>
      <stop offset=".52" stop-color="#edf5ff"/>
      <stop offset="1" stop-color="#f6f9ff"/>
    </linearGradient>
    <linearGradient id="blue" x1="0" y1="0" x2="1" y2="1">
      <stop offset="0" stop-color="#7e96f2"/>
      <stop offset="1" stop-color="#b8c9ff"/>
    </linearGradient>
    <linearGradient id="soft" x1="0" y1="0" x2="1" y2="1">
      <stop offset="0" stop-color="#dfe9ff" stop-opacity=".88"/>
      <stop offset="1" stop-color="#9db4f3" stop-opacity=".72"/>
    </linearGradient>
    <filter id="blur" x="-20%" y="-20%" width="140%" height="140%">
      <feGaussianBlur stdDeviation="18"/>
    </filter>
    <filter id="cardShadow" x="-30%" y="-30%" width="160%" height="160%">
      <feDropShadow dx="0" dy="24" stdDeviation="26" flood-color="#334c9b" flood-opacity=".13"/>
    </filter>
  </defs>

  <rect width="1680" height="943" fill="url(#bg)"/>
  <ellipse cx="1330" cy="210" rx="370" ry="125" fill="#dce8ff" opacity=".55" transform="rotate(22 1330 210)"/>
  <ellipse cx="520" cy="666" rx="360" ry="116" fill="#d7e4ff" opacity=".6"/>
  <path d="M0 780c184-42 345 8 520 70 260 92 433 74 709-2 214-59 325-97 451-81v176H0z" fill="#d9e4ff" opacity=".86"/>
  <path d="M0 770c170-34 350 6 544 72 229 78 385 85 666 6 210-60 330-100 470-86v181H0z" fill="#eaf1ff" opacity=".92"/>

  <g fill="#8198ee" opacity=".42">
    <circle cx="126" cy="132" r="4"/><circle cx="146" cy="132" r="4"/><circle cx="166" cy="132" r="4"/><circle cx="186" cy="132" r="4"/><circle cx="206" cy="132" r="4"/>
    <circle cx="126" cy="156" r="4"/><circle cx="146" cy="156" r="4"/><circle cx="166" cy="156" r="4"/><circle cx="186" cy="156" r="4"/><circle cx="206" cy="156" r="4"/>
    <circle cx="126" cy="180" r="4"/><circle cx="146" cy="180" r="4"/><circle cx="166" cy="180" r="4"/><circle cx="186" cy="180" r="4"/><circle cx="206" cy="180" r="4"/>
    <circle cx="126" cy="204" r="4"/><circle cx="146" cy="204" r="4"/><circle cx="166" cy="204" r="4"/><circle cx="186" cy="204" r="4"/><circle cx="206" cy="204" r="4"/>
    <circle cx="462" cy="790" r="4"/><circle cx="484" cy="790" r="4"/><circle cx="506" cy="790" r="4"/><circle cx="528" cy="790" r="4"/><circle cx="550" cy="790" r="4"/>
    <circle cx="462" cy="814" r="4"/><circle cx="484" cy="814" r="4"/><circle cx="506" cy="814" r="4"/><circle cx="528" cy="814" r="4"/><circle cx="550" cy="814" r="4"/>
    <circle cx="462" cy="838" r="4"/><circle cx="484" cy="838" r="4"/><circle cx="506" cy="838" r="4"/><circle cx="528" cy="838" r="4"/><circle cx="550" cy="838" r="4"/>
  </g>

  <g opacity=".38" fill="none" stroke="#7794f2" stroke-width="4">
    <circle cx="1586" cy="254" r="23"/>
    <circle cx="1130" cy="208" r="8"/>
    <circle cx="1136" cy="862" r="30"/>
    <circle cx="106" cy="860" r="13" fill="#7794f2" stroke="none"/>
  </g>
  <g opacity=".55">
    <circle cx="1514" cy="116" r="8" fill="#acc0f8"/>
    <circle cx="1542" cy="116" r="9" fill="#6378de"/>
    <circle cx="1568" cy="116" r="9" fill="#6e85e8"/>
  </g>

  <g transform="translate(260 202)" opacity=".52">
    <path d="M0 40 55 0l65 12 0 7-65 42z" fill="#7f96ee"/>
    <path d="M26 54 96 26l-12 52c-22 10-45 10-68 0z" fill="#9db2f4"/>
    <path d="M12 45v38" stroke="#7f96ee" stroke-width="6" stroke-linecap="round"/>
    <circle cx="12" cy="91" r="5" fill="#7f96ee"/>
  </g>

  <g transform="translate(72 366)" opacity=".34" filter="url(#cardShadow)">
    <rect width="280" height="170" rx="16" fill="#9db2f4"/>
    <circle cx="70" cy="63" r="34" fill="#5f75dc"/>
    <circle cx="70" cy="52" r="13" fill="#eaf1ff"/>
    <path d="M38 98c12-34 53-34 65 0z" fill="#eaf1ff"/>
    <rect x="126" y="46" width="126" height="10" rx="5" fill="#6f86e8"/>
    <rect x="126" y="74" width="118" height="10" rx="5" fill="#6f86e8"/>
    <rect x="126" y="102" width="88" height="10" rx="5" fill="#6f86e8"/>
  </g>

  <g transform="translate(210 686)" opacity=".62">
    <rect x="8" y="70" width="214" height="22" rx="7" fill="#7991ef"/>
    <rect x="0" y="46" width="205" height="26" rx="8" fill="#f7fbff" stroke="#8097ef" stroke-width="7"/>
    <rect x="15" y="20" width="205" height="28" rx="8" fill="#8399f0"/>
    <rect x="34" y="-8" width="205" height="30" rx="8" fill="#f7fbff" stroke="#8097ef" stroke-width="7"/>
  </g>

  <g transform="translate(102 578)" opacity=".6">
    <rect x="32" y="132" width="86" height="34" rx="6" fill="#7e95ed"/>
    <path d="M75 130c-16-58-5-102 8-102 15 0 26 47 1 102z" fill="#7690ec"/>
    <path d="M75 132c-42-31-61-72-48-84 12-12 52 12 55 82z" fill="#90a6f2"/>
    <path d="M77 132c18-52 52-79 65-66 13 13-5 52-65 66z" fill="#7992ef"/>
    <path d="M77 134c-38-7-67-29-62-44 5-15 46-3 66 38z" fill="#6e86e8"/>
    <path d="M82 132c48-20 74-8 70 8-3 15-36 22-70-8z" fill="#a8b9f6"/>
  </g>

  <g transform="translate(1088 252)" opacity=".5" filter="url(#cardShadow)">
    <path d="M126 0 252 52H0z" fill="#8da4f4"/>
    <rect x="22" y="52" width="208" height="296" fill="#dbe5ff"/>
    <rect x="-88" y="190" width="110" height="158" fill="#cbd9ff"/>
    <rect x="230" y="170" width="226" height="178" fill="#cbd9ff"/>
    <path d="M-104 178 22 154v36H-88zM230 168l220-30 34 38H230z" fill="#91a6f4"/>
    <rect x="96" y="108" width="62" height="74" rx="31" fill="#f7fbff"/>
    <circle cx="127" cy="145" r="30" fill="none" stroke="#8097ef" stroke-width="7"/>
    <path d="M127 122v23l19 11" stroke="#8097ef" stroke-width="5" stroke-linecap="round"/>
    <rect x="86" y="198" width="84" height="128" rx="42" fill="#f7fbff"/>
    <rect x="48" y="212" width="20" height="86" fill="#9fb2f5"/>
    <rect x="190" y="212" width="20" height="86" fill="#9fb2f5"/>
    <rect x="-54" y="230" width="20" height="74" fill="#9fb2f5"/>
    <rect x="278" y="224" width="22" height="78" fill="#9fb2f5"/>
    <rect x="334" y="224" width="22" height="78" fill="#9fb2f5"/>
    <path d="M126-56v56" stroke="#8097ef" stroke-width="6"/>
    <path d="M130-52c22 10 40-8 58 5v30c-20-12-38 6-58-5z" fill="#7f96ee"/>
  </g>

  <g transform="translate(1385 646)" opacity=".56">
    <path d="M90 246c-46-85-42-164-3-236" stroke="#7f96ee" stroke-width="7" fill="none" stroke-linecap="round"/>
    <ellipse cx="42" cy="116" rx="28" ry="70" transform="rotate(-51 42 116)" fill="#6f88ea"/>
    <ellipse cx="130" cy="112" rx="28" ry="70" transform="rotate(45 130 112)" fill="#93a8f4"/>
    <ellipse cx="68" cy="184" rx="26" ry="70" transform="rotate(-66 68 184)" fill="#8299ef"/>
    <ellipse cx="150" cy="198" rx="28" ry="72" transform="rotate(61 150 198)" fill="#6f88ea"/>
    <ellipse cx="114" cy="260" rx="32" ry="80" transform="rotate(84 114 260)" fill="#9db1f5"/>
    <circle cx="0" cy="272" r="26" fill="#8399ef"/>
    <circle cx="198" cy="245" r="32" fill="#a7b8f6"/>
  </g>
  <g transform="translate(470 283)" opacity=".22">
    <rect x="0" y="0" width="62" height="38" rx="12" fill="#aabdf7"/>
    <circle cx="20" cy="19" r="4" fill="#6f86e8"/>
    <circle cx="31" cy="19" r="4" fill="#6f86e8"/>
    <circle cx="42" cy="19" r="4" fill="#6f86e8"/>
  </g>
  <g transform="translate(446 370)" opacity=".18">
    <rect x="0" y="0" width="58" height="34" rx="10" fill="#aabdf7"/>
    <circle cx="18" cy="17" r="4" fill="#6f86e8"/>
    <circle cx="29" cy="17" r="4" fill="#6f86e8"/>
    <circle cx="40" cy="17" r="4" fill="#6f86e8"/>
  </g>
</svg>
